<?xml version="1.0" encoding="utf-8"?>
<!-- Generator: Adobe Illustrator 22.0.0, SVG Export Plug-In . SVG Version: 6.00 Build 0)  -->
<svg version="1.1" id="Capa_1" xmlns="http://www.w3.org/2000/svg" xmlns:xlink="http://www.w3.org/1999/xlink" x="0px" y="0px"
	 viewBox="0 0 348.9 348.9" style="enable-background:new 0 0 348.9 348.9;" xml:space="preserve">
<style type="text/css">
	.st0{fill:#5EB5E0;}
</style>
<g>
	<path class="st0" d="M334,11.8l-0.4-0.4C325.5,4,315.1,0,304.3,0c-12.2,0-23.9,5.2-32.1,14.2L116.8,184.2c-1.4,1.6-2.5,3.4-3.2,5.4
		l-18.3,54.8c-2.1,6.3-1.1,13.3,2.8,18.7c3.9,5.4,10.2,8.7,16.9,8.7h0c2.9,0,5.7-0.6,8.4-1.8l52.9-23.1c1.9-0.8,3.6-2.1,5.1-3.6
		L336.8,73.2C352.9,55.5,351.7,27.9,334,11.8z M130.4,234.2l10.7-32.1l0.9-1l20.3,18.6l-0.9,1L130.4,234.2z M314.6,52.9L182.6,197.5
		L162.2,179L294.3,34.4c2.6-2.8,6.1-4.4,10-4.4c3.4,0,6.6,1.3,9.1,3.5l0.4,0.4C319.2,38.9,319.6,47.5,314.6,52.9z"/>
	<path class="st0" d="M303.9,138.4c-8.3,0-15,6.7-15,15v127.3c0,21-17.1,38.1-38.1,38.1H68.9c-21,0-38.1-17.1-38.1-38.1V100.4
		c0-21,17.1-38.1,38.1-38.1h131.6c8.3,0,15-6.7,15-15s-6.7-15-15-15H68.9c-37.6,0-68.1,30.6-68.1,68.1v180.3
		c0,37.6,30.6,68.1,68.1,68.1h181.8c37.6,0,68.1-30.6,68.1-68.1V153.4C318.9,145.1,312.1,138.4,303.9,138.4z"/>
</g>
</svg>
